# Blender 5.0.0
# www.blender.org
mtllib Coin.mtl
o Cylinder
v -0.130681 -0.000000 -0.843414
v 0.080000 0.000000 -0.750000
v -0.080000 -0.000000 -0.750000
v 0.130681 0.000000 -0.843414
v -0.130681 -0.164542 -0.827208
v -0.080000 -0.146318 -0.735589
v 0.080000 -0.146318 -0.735589
v 0.130681 -0.164542 -0.827208
v -0.080000 -0.287013 -0.692910
v -0.130681 -0.322760 -0.779213
v 0.080000 -0.287013 -0.692910
v -0.080000 -0.416678 -0.623602
v 0.130681 -0.322760 -0.779213
v -0.130681 -0.468576 -0.701273
v -0.080000 -0.530330 -0.530330
v 0.080000 -0.416678 -0.623602
v 0.130681 -0.468576 -0.701273
v -0.080000 -0.623602 -0.416678
v -0.130681 -0.596384 -0.596384
v 0.080000 -0.530330 -0.530330
v -0.080000 -0.692910 -0.287013
v 0.130681 -0.596384 -0.596384
v -0.130681 -0.701273 -0.468576
v -0.080000 -0.735589 -0.146318
v 0.080000 -0.623602 -0.416678
v 0.130681 -0.701273 -0.468576
v -0.080000 -0.750000 0.000000
v -0.130681 -0.779213 -0.322760
v -0.080000 -0.735589 0.146318
v 0.080000 -0.692910 -0.287013
v 0.130681 -0.779213 -0.322760
v -0.080000 -0.692910 0.287013
v -0.130681 -0.827208 -0.164542
v 0.080000 -0.735589 -0.146318
v 0.130681 -0.827208 -0.164542
v -0.080000 -0.623602 0.416678
v -0.130681 -0.843414 0.000000
v -0.080000 -0.530330 0.530330
v 0.080000 -0.750000 0.000000
v 0.130681 -0.843414 0.000000
v -0.080000 -0.416678 0.623602
v -0.130681 -0.827208 0.164542
v 0.080000 -0.735589 0.146318
v 0.130681 -0.827208 0.164542
v -0.080000 -0.287013 0.692910
v 0.080000 -0.692910 0.287013
v -0.130681 -0.779213 0.322760
v -0.080000 -0.146318 0.735589
v 0.130681 -0.779213 0.322760
v -0.130681 -0.701273 0.468576
v -0.080000 -0.000000 0.750000
v 0.080000 -0.623602 0.416678
v -0.080000 0.146318 0.735589
v 0.130681 -0.701273 0.468576
v -0.130681 -0.596384 0.596384
v 0.080000 -0.530330 0.530330
v -0.080000 0.287013 0.692910
v 0.130681 -0.596384 0.596384
v -0.130681 -0.468576 0.701273
v -0.080000 0.416678 0.623602
v 0.080000 -0.416678 0.623602
v 0.130681 -0.468576 0.701273
v -0.080000 0.530330 0.530330
v -0.130681 -0.322760 0.779213
v 0.080000 -0.287013 0.692910
v -0.080000 0.623602 0.416678
v 0.130681 -0.322760 0.779213
v -0.080000 0.692910 0.287013
v 0.080000 -0.146318 0.735589
v -0.130681 -0.164542 0.827208
v 0.130681 -0.164542 0.827208
v -0.080000 0.735589 0.146318
v -0.130681 -0.000000 0.843414
v 0.080000 0.000000 0.750000
v -0.080000 0.750000 0.000000
v 0.130681 0.000000 0.843414
v -0.130681 0.164542 0.827208
v -0.080000 0.735589 -0.146318
v 0.080000 0.146318 0.735589
v 0.130681 0.164542 0.827208
v -0.080000 0.692910 -0.287013
v -0.130681 0.322760 0.779213
v -0.080000 0.623602 -0.416678
v 0.080000 0.287013 0.692910
v 0.130681 0.322760 0.779213
v -0.130681 0.468576 0.701273
v -0.080000 0.530330 -0.530330
v 0.080000 0.416678 0.623602
v 0.130681 0.468576 0.701273
v -0.080000 0.416678 -0.623602
v -0.130681 0.596384 0.596384
v 0.080000 0.530330 0.530330
v -0.080000 0.287013 -0.692910
v 0.130681 0.596384 0.596384
v -0.130681 0.701273 0.468576
v -0.080000 0.146318 -0.735589
v 0.080000 0.623602 0.416678
v 0.130681 0.701273 0.468576
v -0.130681 0.779213 0.322760
v 0.080000 0.692910 0.287013
v 0.130681 0.779213 0.322760
v -0.130681 0.827208 0.164542
v 0.080000 0.735589 0.146318
v 0.130681 0.827208 0.164542
v -0.130681 0.843414 0.000000
v 0.080000 0.750000 0.000000
v 0.130681 0.843414 0.000000
v -0.130681 0.827208 -0.164542
v 0.080000 0.735589 -0.146318
v 0.130681 0.827208 -0.164542
v -0.130681 0.779213 -0.322760
v 0.080000 0.692910 -0.287013
v 0.130681 0.779213 -0.322760
v -0.130681 0.701273 -0.468576
v 0.080000 0.623602 -0.416678
v 0.130681 0.701273 -0.468576
v -0.130681 0.596384 -0.596384
v 0.080000 0.530330 -0.530330
v 0.130681 0.596384 -0.596384
v -0.130681 0.468576 -0.701273
v 0.080000 0.416678 -0.623602
v 0.130681 0.468576 -0.701273
v -0.130681 0.322760 -0.779213
v 0.080000 0.287013 -0.692910
v 0.130681 0.322760 -0.779213
v -0.130681 0.164542 -0.827208
v 0.080000 0.146318 -0.735589
v 0.130681 0.164542 -0.827208
v 0.130681 0.623602 -0.416678
v 0.130681 0.416678 -0.623602
v 0.130681 0.530330 -0.530330
v 0.130681 0.146318 -0.735589
v 0.130681 -0.146318 -0.735589
v 0.130681 0.000000 -0.750000
v 0.130681 0.287013 -0.692910
v 0.130681 0.750000 0.000000
v 0.130681 0.735589 -0.146318
v 0.130681 0.735589 0.146318
v 0.130681 0.623602 0.416678
v 0.130681 0.416678 0.623602
v 0.130681 0.530330 0.530330
v 0.130681 0.692910 0.287013
v 0.130681 0.146318 0.735589
v 0.130681 -0.146318 0.735589
v 0.130681 0.000000 0.750000
v 0.130681 -0.416678 0.623602
v 0.130681 -0.623602 0.416678
v 0.130681 -0.530330 0.530330
v 0.130681 -0.287013 0.692910
v 0.130681 -0.416678 -0.623602
v 0.130681 -0.623602 -0.416678
v 0.130681 -0.530330 -0.530330
v 0.130681 -0.750000 0.000000
v 0.130681 -0.735589 0.146318
v 0.130681 -0.735589 -0.146318
v 0.130681 -0.692910 -0.287013
v 0.130681 0.692910 -0.287013
v 0.130681 -0.287013 -0.692910
v 0.130681 0.287013 0.692910
v 0.130681 -0.692910 0.287013
v -0.130681 0.146318 -0.735589
v -0.130681 -0.146318 -0.735589
v -0.130681 -0.000000 -0.750000
v -0.130681 -0.416678 -0.623602
v -0.130681 -0.623602 -0.416678
v -0.130681 -0.530330 -0.530330
v -0.130681 -0.287013 -0.692910
v -0.130681 -0.416678 0.623602
v -0.130681 -0.623602 0.416678
v -0.130681 -0.530330 0.530330
v -0.130681 -0.750000 0.000000
v -0.130681 -0.735589 0.146318
v -0.130681 -0.735589 -0.146318
v -0.130681 -0.692910 0.287013
v -0.130681 0.623602 0.416678
v -0.130681 0.416678 0.623602
v -0.130681 0.530330 0.530330
v -0.130681 0.146318 0.735589
v -0.130681 -0.146318 0.735589
v -0.130681 -0.000000 0.750000
v -0.130681 0.287013 0.692910
v -0.130681 0.750000 0.000000
v -0.130681 0.735589 0.146318
v -0.130681 0.735589 -0.146318
v -0.130681 0.623602 -0.416678
v -0.130681 0.416678 -0.623602
v -0.130681 0.530330 -0.530330
v -0.130681 0.692910 -0.287013
v -0.130681 0.287013 -0.692910
v -0.130681 -0.692910 -0.287013
v -0.130681 0.692910 0.287013
v -0.130681 -0.287013 0.692910
vn -0.0000 -0.0980 -0.9952
vn -0.0000 -0.2903 -0.9569
vn -0.0000 -0.4714 -0.8819
vn -0.0000 -0.6344 -0.7730
vn -0.0000 -0.7730 -0.6344
vn -0.0000 -0.8819 -0.4714
vn -0.0000 -0.9569 -0.2903
vn -0.0000 -0.9952 -0.0980
vn -0.0000 -0.9952 0.0980
vn -0.0000 -0.9569 0.2903
vn -0.0000 -0.8819 0.4714
vn -0.0000 -0.7730 0.6344
vn -0.0000 -0.6344 0.7730
vn -0.0000 -0.4714 0.8819
vn -0.0000 -0.2903 0.9569
vn -0.0000 -0.0980 0.9952
vn -0.0000 0.0980 0.9952
vn -0.0000 0.2903 0.9569
vn -0.0000 0.4714 0.8819
vn -0.0000 0.6344 0.7730
vn -0.0000 0.7730 0.6344
vn -0.0000 0.8819 0.4714
vn -0.0000 0.9569 0.2903
vn -0.0000 0.9952 0.0980
vn -0.0000 0.9952 -0.0980
vn -0.0000 0.9569 -0.2903
vn -0.0000 0.8819 -0.4714
vn -0.0000 0.7730 -0.6344
vn -0.0000 0.6344 -0.7730
vn -0.0000 0.4714 -0.8819
vn 1.0000 -0.0000 -0.0000
vn -0.0000 0.2903 -0.9569
vn -0.0000 0.0980 -0.9952
vn -1.0000 -0.0000 -0.0000
vt 1.000000 0.500000
vt 1.000000 1.000000
vt 0.968750 1.000000
vt 0.968750 0.500000
vt 0.937500 1.000000
vt 0.937500 0.500000
vt 0.906250 1.000000
vt 0.906250 0.500000
vt 0.875000 1.000000
vt 0.875000 0.500000
vt 0.843750 1.000000
vt 0.843750 0.500000
vt 0.812500 1.000000
vt 0.812500 0.500000
vt 0.781250 1.000000
vt 0.781250 0.500000
vt 0.750000 1.000000
vt 0.750000 0.500000
vt 0.718750 1.000000
vt 0.718750 0.500000
vt 0.687500 1.000000
vt 0.687500 0.500000
vt 0.656250 1.000000
vt 0.656250 0.500000
vt 0.625000 1.000000
vt 0.625000 0.500000
vt 0.593750 1.000000
vt 0.593750 0.500000
vt 0.562500 1.000000
vt 0.562500 0.500000
vt 0.531250 1.000000
vt 0.531250 0.500000
vt 0.500000 1.000000
vt 0.500000 0.500000
vt 0.468750 1.000000
vt 0.468750 0.500000
vt 0.437500 1.000000
vt 0.437500 0.500000
vt 0.406250 1.000000
vt 0.406250 0.500000
vt 0.375000 1.000000
vt 0.375000 0.500000
vt 0.343750 1.000000
vt 0.343750 0.500000
vt 0.312500 1.000000
vt 0.312500 0.500000
vt 0.281250 1.000000
vt 0.281250 0.500000
vt 0.250000 1.000000
vt 0.250000 0.500000
vt 0.218750 1.000000
vt 0.218750 0.500000
vt 0.187500 1.000000
vt 0.187500 0.500000
vt 0.156250 1.000000
vt 0.156250 0.500000
vt 0.125000 1.000000
vt 0.125000 0.500000
vt 0.093750 1.000000
vt 0.093750 0.500000
vt 0.062500 1.000000
vt 0.062500 0.500000
vt 0.331672 0.052827
vt 0.341844 0.028269
vt 0.383337 0.050447
vt 0.419706 0.080294
vt 0.449553 0.116663
vt 0.471731 0.158156
vt 0.485388 0.203178
vt 0.490000 0.250000
vt 0.485388 0.296822
vt 0.471731 0.341844
vt 0.449553 0.383337
vt 0.419706 0.419706
vt 0.383337 0.449553
vt 0.341844 0.471731
vt 0.296822 0.485388
vt 0.250000 0.490000
vt 0.203178 0.485388
vt 0.158156 0.471731
vt 0.116663 0.449553
vt 0.080294 0.419706
vt 0.050447 0.383337
vt 0.028269 0.341844
vt 0.052827 0.331672
vt 0.072549 0.368569
vt 0.099090 0.400910
vt 0.131431 0.427451
vt 0.168328 0.447173
vt 0.208364 0.459318
vt 0.250000 0.463418
vt 0.291636 0.459318
vt 0.331672 0.447173
vt 0.368569 0.427451
vt 0.400910 0.400910
vt 0.427451 0.368569
vt 0.447173 0.331672
vt 0.459318 0.291636
vt 0.463418 0.250000
vt 0.459318 0.208364
vt 0.447173 0.168328
vt 0.427451 0.131431
vt 0.400910 0.099090
vt 0.368569 0.072549
vt 0.014612 0.296822
vt 0.010000 0.250000
vt 0.014612 0.203178
vt 0.028269 0.158156
vt 0.050447 0.116663
vt 0.080294 0.080294
vt 0.116663 0.050447
vt 0.158156 0.028269
vt 0.203178 0.014612
vt 0.250000 0.010000
vt 0.296822 0.014612
vt 0.291636 0.040682
vt 0.250000 0.036582
vt 0.208364 0.040682
vt 0.168328 0.052827
vt 0.131431 0.072549
vt 0.099090 0.099090
vt 0.072549 0.131431
vt 0.052827 0.168328
vt 0.040682 0.208364
vt 0.036582 0.250000
vt 0.040682 0.291636
vt 0.031250 1.000000
vt 0.031250 0.500000
vt 0.000000 1.000000
vt 0.000000 0.500000
vt 0.658156 0.471731
vt 0.703178 0.485388
vt 0.750000 0.490000
vt 0.796822 0.485388
vt 0.841844 0.471731
vt 0.883337 0.449553
vt 0.919706 0.419706
vt 0.949553 0.383337
vt 0.971731 0.341844
vt 0.985388 0.296822
vt 0.990000 0.250000
vt 0.985388 0.203178
vt 0.971731 0.158156
vt 0.949553 0.116663
vt 0.919706 0.080294
vt 0.883337 0.050447
vt 0.841844 0.028269
vt 0.831672 0.052827
vt 0.868569 0.072549
vt 0.900910 0.099090
vt 0.927451 0.131431
vt 0.947173 0.168328
vt 0.959318 0.208364
vt 0.963418 0.250000
vt 0.959318 0.291636
vt 0.947173 0.331672
vt 0.927451 0.368569
vt 0.900910 0.400910
vt 0.868569 0.427451
vt 0.831672 0.447173
vt 0.791636 0.459318
vt 0.750000 0.463418
vt 0.708364 0.459318
vt 0.668328 0.447173
vt 0.796822 0.014612
vt 0.750000 0.010000
vt 0.703178 0.014612
vt 0.658156 0.028269
vt 0.616663 0.050447
vt 0.580294 0.080294
vt 0.550447 0.116663
vt 0.528269 0.158156
vt 0.514612 0.203178
vt 0.510000 0.250000
vt 0.514612 0.296822
vt 0.528269 0.341844
vt 0.550447 0.383337
vt 0.580294 0.419706
vt 0.616663 0.449553
vt 0.631431 0.427451
vt 0.599090 0.400910
vt 0.572549 0.368569
vt 0.552827 0.331672
vt 0.540682 0.291636
vt 0.536581 0.250000
vt 0.540682 0.208364
vt 0.552827 0.168328
vt 0.572549 0.131431
vt 0.599090 0.099090
vt 0.631431 0.072549
vt 0.668328 0.052827
vt 0.708364 0.040682
vt 0.750000 0.036582
vt 0.791636 0.040682
vt 1.000000 0.816755
vt 0.968750 0.816755
vt 0.937500 0.816755
vt 0.906250 0.816755
vt 0.875000 0.816755
vt 0.843750 0.816755
vt 0.812500 0.816755
vt 0.781250 0.816755
vt 0.750000 0.816755
vt 0.718750 0.816755
vt 0.687500 0.816755
vt 0.656250 0.816755
vt 0.625000 0.816755
vt 0.593750 0.816755
vt 0.562500 0.816755
vt 0.531250 0.816755
vt 0.500000 0.816755
vt 0.468750 0.816755
vt 0.437500 0.816755
vt 0.406250 0.816755
vt 0.375000 0.816755
vt 0.343750 0.816755
vt 0.312500 0.816755
vt 0.281250 0.816755
vt 0.250000 0.816755
vt 0.218750 0.816755
vt 0.187500 0.816755
vt 0.156250 0.816755
vt 0.125000 0.816755
vt 0.093750 0.816755
vt 0.062500 0.816755
vt 0.031250 0.816755
vt 0.000000 0.816755
vt 0.968750 0.683245
vt 1.000000 0.683245
vt 0.937500 0.683245
vt 0.906250 0.683245
vt 0.875000 0.683245
vt 0.843750 0.683245
vt 0.812500 0.683245
vt 0.781250 0.683245
vt 0.750000 0.683245
vt 0.718750 0.683245
vt 0.687500 0.683245
vt 0.656250 0.683245
vt 0.625000 0.683245
vt 0.593750 0.683245
vt 0.562500 0.683245
vt 0.531250 0.683245
vt 0.500000 0.683245
vt 0.468750 0.683245
vt 0.437500 0.683245
vt 0.406250 0.683245
vt 0.375000 0.683245
vt 0.343750 0.683245
vt 0.312500 0.683245
vt 0.281250 0.683245
vt 0.250000 0.683245
vt 0.218750 0.683245
vt 0.187500 0.683245
vt 0.156250 0.683245
vt 0.125000 0.683245
vt 0.093750 0.683245
vt 0.062500 0.683245
vt 0.031250 0.683245
vt 0.000000 0.683245
s 0
f 1/1/1 4/2/1 8/3/1 5/4/1
f 5/4/2 8/3/2 13/5/2 10/6/2
f 10/6/3 13/5/3 17/7/3 14/8/3
f 14/8/4 17/7/4 22/9/4 19/10/4
f 19/10/5 22/9/5 26/11/5 23/12/5
f 23/12/6 26/11/6 31/13/6 28/14/6
f 28/14/7 31/13/7 35/15/7 33/16/7
f 33/16/8 35/15/8 40/17/8 37/18/8
f 37/18/9 40/17/9 44/19/9 42/20/9
f 42/20/10 44/19/10 49/21/10 47/22/10
f 47/22/11 49/21/11 54/23/11 50/24/11
f 50/24/12 54/23/12 58/25/12 55/26/12
f 55/26/13 58/25/13 62/27/13 59/28/13
f 59/28/14 62/27/14 67/29/14 64/30/14
f 64/30/15 67/29/15 71/31/15 70/32/15
f 70/32/16 71/31/16 76/33/16 73/34/16
f 73/34/17 76/33/17 80/35/17 77/36/17
f 77/36/18 80/35/18 85/37/18 82/38/18
f 82/38/19 85/37/19 89/39/19 86/40/19
f 86/40/20 89/39/20 94/41/20 91/42/20
f 91/42/21 94/41/21 98/43/21 95/44/21
f 95/44/22 98/43/22 101/45/22 99/46/22
f 99/46/23 101/45/23 104/47/23 102/48/23
f 102/48/24 104/47/24 107/49/24 105/50/24
f 105/50/25 107/49/25 110/51/25 108/52/25
f 108/52/26 110/51/26 113/53/26 111/54/26
f 111/54/27 113/53/27 116/55/27 114/56/27
f 114/56/28 116/55/28 119/57/28 117/58/28
f 117/58/29 119/57/29 122/59/29 120/60/29
f 120/60/30 122/59/30 125/61/30 123/62/30
f 149/63/31 67/64/31 62/65/31 58/66/31 54/67/31 49/68/31 44/69/31 40/70/31 35/71/31 31/72/31 26/73/31 22/74/31 17/75/31 13/76/31 8/77/31 4/78/31 128/79/31 125/80/31 122/81/31 119/82/31 116/83/31 113/84/31 157/85/31 129/86/31 131/87/31 130/88/31 135/89/31 132/90/31 134/91/31 133/92/31 158/93/31 150/94/31 152/95/31 151/96/31 156/97/31 155/98/31 153/99/31 154/100/31 160/101/31 147/102/31 148/103/31 146/104/31
f 157/85/31 113/84/31 110/105/31 107/106/31 104/107/31 101/108/31 98/109/31 94/110/31 89/111/31 85/112/31 80/113/31 76/114/31 71/115/31 67/64/31 149/63/31 144/116/31 145/117/31 143/118/31 159/119/31 140/120/31 141/121/31 139/122/31 142/123/31 138/124/31 136/125/31 137/126/31
f 123/62/32 125/61/32 128/127/32 126/128/32
f 126/128/33 128/127/33 4/129/33 1/130/33
f 123/131/34 126/132/34 1/133/34 5/134/34 10/135/34 14/136/34 19/137/34 23/138/34 28/139/34 33/140/34 37/141/34 42/142/34 47/143/34 50/144/34 55/145/34 59/146/34 64/147/34 192/148/34 168/149/34 170/150/34 169/151/34 174/152/34 172/153/34 171/154/34 173/155/34 190/156/34 165/157/34 166/158/34 164/159/34 167/160/34 162/161/34 163/162/34 161/163/34 189/164/34
f 192/148/34 64/147/34 70/165/34 73/166/34 77/167/34 82/168/34 86/169/34 91/170/34 95/171/34 99/172/34 102/173/34 105/174/34 108/175/34 111/176/34 114/177/34 117/178/34 120/179/34 123/131/34 189/164/34 186/180/34 187/181/34 185/182/34 188/183/34 184/184/34 182/185/34 183/186/34 191/187/34 175/188/34 177/189/34 176/190/34 181/191/34 178/192/34 180/193/34 179/194/34
f 134/195/17 2/1/17 7/4/17 133/196/17
f 133/196/18 7/4/18 11/6/18 158/197/18
f 158/197/19 11/6/19 16/8/19 150/198/19
f 150/198/20 16/8/20 20/10/20 152/199/20
f 20/10/21 25/12/21 151/200/21 152/199/21
f 25/12/22 30/14/22 156/201/22 151/200/22
f 30/14/23 34/16/23 155/202/23 156/201/23
f 34/16/24 39/18/24 153/203/24 155/202/24
f 39/18/25 43/20/25 154/204/25 153/203/25
f 43/20/26 46/22/26 160/205/26 154/204/26
f 46/22/27 52/24/27 147/206/27 160/205/27
f 52/24/28 56/26/28 148/207/28 147/206/28
f 56/26/29 61/28/29 146/208/29 148/207/29
f 61/28/30 65/30/30 149/209/30 146/208/30
f 65/30/32 69/32/32 144/210/32 149/209/32
f 69/32/33 74/34/33 145/211/33 144/210/33
f 74/34/1 79/36/1 143/212/1 145/211/1
f 79/36/2 84/38/2 159/213/2 143/212/2
f 84/38/3 88/40/3 140/214/3 159/213/3
f 88/40/4 92/42/4 141/215/4 140/214/4
f 141/215/5 92/42/5 97/44/5 139/216/5
f 139/216/6 97/44/6 100/46/6 142/217/6
f 142/217/7 100/46/7 103/48/7 138/218/7
f 138/218/8 103/48/8 106/50/8 136/219/8
f 136/219/9 106/50/9 109/52/9 137/220/9
f 137/220/10 109/52/10 112/54/10 157/221/10
f 157/221/11 112/54/11 115/56/11 129/222/11
f 129/222/12 115/56/12 118/58/12 131/223/12
f 131/223/13 118/58/13 121/60/13 130/224/13
f 130/224/14 121/60/14 124/62/14 135/225/14
f 135/225/15 124/62/15 127/128/15 132/226/15
f 132/226/16 127/128/16 2/130/16 134/227/16
f 25/138/31 20/137/31 16/136/31 11/135/31 7/134/31 2/133/31 127/132/31 124/131/31 121/179/31 118/178/31 115/177/31 112/176/31 109/175/31 106/174/31 103/173/31 100/172/31 97/171/31 92/170/31 88/169/31 84/168/31 79/167/31 74/166/31 69/165/31 65/147/31 61/146/31 56/145/31 52/144/31 46/143/31 43/142/31 39/141/31 34/140/31 30/139/31
f 162/228/17 6/3/17 3/2/17 163/229/17
f 167/230/18 9/5/18 6/3/18 162/228/18
f 164/231/19 12/7/19 9/5/19 167/230/19
f 166/232/20 15/9/20 12/7/20 164/231/20
f 165/233/21 18/11/21 15/9/21 166/232/21
f 190/234/22 21/13/22 18/11/22 165/233/22
f 24/15/23 21/13/23 190/234/23 173/235/23
f 171/236/24 27/17/24 24/15/24 173/235/24
f 172/237/25 29/19/25 27/17/25 171/236/25
f 174/238/26 32/21/26 29/19/26 172/237/26
f 169/239/27 36/23/27 32/21/27 174/238/27
f 170/240/28 38/25/28 36/23/28 169/239/28
f 168/241/29 41/27/29 38/25/29 170/240/29
f 45/29/30 41/27/30 168/241/30 192/242/30
f 48/31/32 45/29/32 192/242/32 179/243/32
f 180/244/33 51/33/33 48/31/33 179/243/33
f 178/245/1 53/35/1 51/33/1 180/244/1
f 181/246/2 57/37/2 53/35/2 178/245/2
f 176/247/3 60/39/3 57/37/3 181/246/3
f 177/248/4 63/41/4 60/39/4 176/247/4
f 175/249/5 66/43/5 63/41/5 177/248/5
f 191/250/6 68/45/6 66/43/6 175/249/6
f 183/251/7 72/47/7 68/45/7 191/250/7
f 182/252/8 75/49/8 72/47/8 183/251/8
f 184/253/9 78/51/9 75/49/9 182/252/9
f 188/254/10 81/53/10 78/51/10 184/253/10
f 185/255/11 83/55/11 81/53/11 188/254/11
f 187/256/12 87/57/12 83/55/12 185/255/12
f 186/257/13 90/59/13 87/57/13 187/256/13
f 189/258/14 93/61/14 90/59/14 186/257/14
f 3/78/34 6/77/34 9/76/34 12/75/34 15/74/34 18/73/34 21/72/34 24/71/34 27/70/34 29/69/34 32/68/34 36/67/34 38/66/34 41/65/34 45/64/34 48/115/34 51/114/34 53/113/34 57/112/34 60/111/34 63/110/34 66/109/34 68/108/34 72/107/34 75/106/34 78/105/34 81/84/34 83/83/34 87/82/34 90/81/34 93/80/34 96/79/34
f 161/259/15 96/127/15 93/61/15 189/258/15
f 163/260/16 3/129/16 96/127/16 161/259/16
o Text
v 0.100000 0.341000 -0.049000
v 0.100000 0.341000 0.049000
v 0.100000 -0.341000 0.049000
v 0.100000 -0.341000 -0.049000
v 0.050000 0.341000 -0.049000
v 0.050000 0.341000 0.049000
v 0.050000 -0.341000 0.049000
v 0.050000 -0.341000 -0.049000
vn 1.0000 -0.0000 -0.0000
vn -1.0000 -0.0000 -0.0000
vn -0.0000 -0.0000 1.0000
vn -0.0000 1.0000 -0.0000
vn -0.0000 -1.0000 -0.0000
vn -0.0000 -0.0000 -1.0000
vt 0.666667 0.000000
vt 0.000000 0.000000
vt 0.333333 0.000000
vt 1.000000 0.000000
s 0
f 195/261/35 193/262/35 194/263/35
f 195/261/35 196/264/35 193/262/35
f 199/261/36 198/263/36 197/262/36
f 199/261/36 197/262/36 200/264/36
f 195/261/37 194/263/37 198/263/37 199/261/37
f 194/263/38 193/262/38 197/262/38 198/263/38
f 196/264/39 195/261/39 199/261/39 200/264/39
f 193/262/40 196/264/40 200/264/40 197/262/40
o Text.001
v -0.050000 0.341000 -0.049000
v -0.050000 0.341000 0.049000
v -0.050000 -0.341000 0.049000
v -0.050000 -0.341000 -0.049000
v -0.100000 0.341000 -0.049000
v -0.100000 0.341000 0.049000
v -0.100000 -0.341000 0.049000
v -0.100000 -0.341000 -0.049000
vn 1.0000 -0.0000 -0.0000
vn -1.0000 -0.0000 -0.0000
vn -0.0000 -0.0000 1.0000
vn -0.0000 1.0000 -0.0000
vn -0.0000 -1.0000 -0.0000
vn -0.0000 -0.0000 -1.0000
vt 0.666667 0.000000
vt 0.000000 0.000000
vt 0.333333 0.000000
vt 1.000000 0.000000
s 0
f 203/265/41 201/266/41 202/267/41
f 203/265/41 204/268/41 201/266/41
f 207/265/42 206/267/42 205/266/42
f 207/265/42 205/266/42 208/268/42
f 203/265/43 202/267/43 206/267/43 207/265/43
f 202/267/44 201/266/44 205/266/44 206/267/44
f 204/268/45 203/265/45 207/265/45 208/268/45
f 201/266/46 204/268/46 208/268/46 205/266/46
